# xmcd CD database file
#
# Track frame offsets:
#	150
#	16358
#	29947
#	47488
#	60012
#	86483
#	95645
#	111507
#	126379
#	143612
#	157766
#	174228
#	188152
#	211297
#	251455
#	265894
#	280907
#	293118
#	310155
#	329952
#
# Disc length: 4692 seconds
#
# Revision: 0
# Processed by: cddbd v1.5.1PL0 Copyright (c) Steve Scherf et al.
# Submitted via: CDex 1.51
#
DISCID=22125214
DTITLE=Chris Barber - The Best of Barber
DYEAR=2003
DGENRE=Jazz
TTITLE0=Sweet Georgia Brown
TTITLE1=Whistlin' Rufus
TTITLE2=I Can't Give You Anything But Love
TTITLE3=Petite Fleur
TTITLE4=April Showers
TTITLE5=I Wish I could Shimmy Like my Sister Kate
TTITLE6=Careless Love
TTITLE7=Everybody Loves my Baby
TTITLE8=The Entertainer
TTITLE9=When The Saints Go Marching In
TTITLE10=Hushabye
TTITLE11=High Society
TTITLE12=New St. Louis Blues
TTITLE13=The Sheik of Araby
TTITLE14=My Old Kentucky Home
TTITLE15=Sweet Sue, Just You
TTITLE16=Lonesome Road
TTITLE17=Bill Bailey, Won't you Please Come Home
TTITLE18=Mood Indigo
TTITLE19=You Rascal You
EXTD=YEAR: 2003
EXTT0=
EXTT1=
EXTT2=
EXTT3=
EXTT4=
EXTT5=
EXTT6=
EXTT7=
EXTT8=
EXTT9=
EXTT10=
EXTT11=
EXTT12=
EXTT13=
EXTT14=
EXTT15=
EXTT16=
EXTT17=
EXTT18=
EXTT19=
PLAYORDER=
